<svg width="30" height="30" viewBox="0 0 30 30" fill="none" xmlns="http://www.w3.org/2000/svg">
<path id="add_notes" d="M3 27C2.175 27 1.46875 26.7063 0.88125 26.1188C0.29375 25.5312 0 24.825 0 24V3C0 2.175 0.29375 1.46875 0.88125 0.88125C1.46875 0.29375 2.175 0 3 0H24C24.825 0 25.5312 0.29375 26.1188 0.88125C26.7063 1.46875 27 2.175 27 3V13.05C26.525 12.825 26.0375 12.6313 25.5375 12.4688C25.0375 12.3062 24.525 12.1875 24 12.1125V3H3V24H12.075C12.15 24.55 12.2688 25.075 12.4313 25.575C12.5938 26.075 12.7875 26.55 13.0125 27H3ZM3 24V3V12.1125V12V24ZM6 21H12.1125C12.1875 20.475 12.3062 19.9625 12.4688 19.4625C12.6313 18.9625 12.8125 18.475 13.0125 18H6V21ZM6 15H15.15C15.95 14.25 16.8438 13.625 17.8312 13.125C18.8188 12.625 19.875 12.2875 21 12.1125V12H6V15ZM6 9H21V6H6V9ZM22.5 30C20.425 30 18.6562 29.2688 17.1938 27.8063C15.7313 26.3438 15 24.575 15 22.5C15 20.425 15.7313 18.6562 17.1938 17.1938C18.6562 15.7313 20.425 15 22.5 15C24.575 15 26.3438 15.7313 27.8063 17.1938C29.2688 18.6562 30 20.425 30 22.5C30 24.575 29.2688 26.3438 27.8063 27.8063C26.3438 29.2688 24.575 30 22.5 30ZM21.75 27H23.25V23.25H27V21.75H23.25V18H21.75V21.75H18V23.25H21.75V27Z" fill="#2A2A2A"/>
</svg>
