<svg width="25" height="25" viewBox="0 0 25 25" fill="none" xmlns="http://www.w3.org/2000/svg">
<g id="Frame">
<path id="Vector" d="M9.89581 17.1877L17.1875 12.5002L9.89581 7.81266V17.1877ZM12.5 22.9168C11.059 22.9168 9.70484 22.6434 8.43748 22.0965C7.17012 21.5496 6.06769 20.8075 5.13019 19.87C4.19269 18.9325 3.4505 17.83 2.90363 16.5627C2.35675 15.2953 2.08331 13.9411 2.08331 12.5002C2.08331 11.0592 2.35675 9.70502 2.90363 8.43766C3.4505 7.1703 4.19269 6.06787 5.13019 5.13037C6.06769 4.19287 7.17012 3.45068 8.43748 2.90381C9.70484 2.35693 11.059 2.0835 12.5 2.0835C13.941 2.0835 15.2951 2.35693 16.5625 2.90381C17.8298 3.45068 18.9323 4.19287 19.8698 5.13037C20.8073 6.06787 21.5495 7.1703 22.0963 8.43766C22.6432 9.70502 22.9166 11.0592 22.9166 12.5002C22.9166 13.9411 22.6432 15.2953 22.0963 16.5627C21.5495 17.83 20.8073 18.9325 19.8698 19.87C18.9323 20.8075 17.8298 21.5496 16.5625 22.0965C15.2951 22.6434 13.941 22.9168 12.5 22.9168ZM12.5 20.8335C14.8264 20.8335 16.7969 20.0262 18.4114 18.4116C20.026 16.797 20.8333 14.8266 20.8333 12.5002C20.8333 10.1738 20.026 8.20329 18.4114 6.5887C16.7969 4.97412 14.8264 4.16683 12.5 4.16683C10.1736 4.16683 8.2031 4.97412 6.58852 6.5887C4.97394 8.20329 4.16665 10.1738 4.16665 12.5002C4.16665 14.8266 4.97394 16.797 6.58852 18.4116C8.2031 20.0262 10.1736 20.8335 12.5 20.8335Z" fill="#5F6368"/>
</g>
</svg>
