<svg width="10" height="10" viewBox="0 0 10 10" fill="none" xmlns="http://www.w3.org/2000/svg">
<g id="Car">
<path id="Vector" d="M1.66667 8.75V9.375C1.66667 9.55208 1.61343 9.70052 1.50694 9.82031C1.40046 9.9401 1.26852 10 1.11111 10H0.555556C0.398148 10 0.266204 9.9401 0.159722 9.82031C0.0532407 9.70052 0 9.55208 0 9.375V4.375L1.16667 0.625C1.22222 0.4375 1.32176 0.286458 1.46528 0.171875C1.6088 0.0572917 1.76852 0 1.94444 0H8.05556C8.23148 0 8.3912 0.0572917 8.53472 0.171875C8.67824 0.286458 8.77778 0.4375 8.83333 0.625L10 4.375V9.375C10 9.55208 9.94676 9.70052 9.84028 9.82031C9.7338 9.9401 9.60185 10 9.44444 10H8.88889C8.73148 10 8.59954 9.9401 8.49306 9.82031C8.38657 9.70052 8.33333 9.55208 8.33333 9.375V8.75H1.66667ZM1.55556 3.125H8.44444L7.86111 1.25H2.13889L1.55556 3.125ZM2.5 6.875C2.73148 6.875 2.92824 6.78385 3.09028 6.60156C3.25231 6.41927 3.33333 6.19792 3.33333 5.9375C3.33333 5.67708 3.25231 5.45573 3.09028 5.27344C2.92824 5.09115 2.73148 5 2.5 5C2.26852 5 2.07176 5.09115 1.90972 5.27344C1.74769 5.45573 1.66667 5.67708 1.66667 5.9375C1.66667 6.19792 1.74769 6.41927 1.90972 6.60156C2.07176 6.78385 2.26852 6.875 2.5 6.875ZM7.5 6.875C7.73148 6.875 7.92824 6.78385 8.09028 6.60156C8.25231 6.41927 8.33333 6.19792 8.33333 5.9375C8.33333 5.67708 8.25231 5.45573 8.09028 5.27344C7.92824 5.09115 7.73148 5 7.5 5C7.26852 5 7.07176 5.09115 6.90972 5.27344C6.74769 5.45573 6.66667 5.67708 6.66667 5.9375C6.66667 6.19792 6.74769 6.41927 6.90972 6.60156C7.07176 6.78385 7.26852 6.875 7.5 6.875ZM1.11111 7.5H8.88889V4.375H1.11111V7.5Z" fill="black"/>
</g>
</svg>
