<svg width="14" height="14" viewBox="0 0 14 14" fill="none" xmlns="http://www.w3.org/2000/svg">
<g id="Clock">
<path id="Vector" d="M9.31 10.29L10.29 9.31L7.7 6.72V3.5H6.3V7.28L9.31 10.29ZM7 14C6.03167 14 5.12167 13.8162 4.27 13.4488C3.41833 13.0813 2.6775 12.5825 2.0475 11.9525C1.4175 11.3225 0.91875 10.5817 0.55125 9.73C0.18375 8.87833 0 7.96833 0 7C0 6.03167 0.18375 5.12167 0.55125 4.27C0.91875 3.41833 1.4175 2.6775 2.0475 2.0475C2.6775 1.4175 3.41833 0.91875 4.27 0.55125C5.12167 0.18375 6.03167 0 7 0C7.96833 0 8.87833 0.18375 9.73 0.55125C10.5817 0.91875 11.3225 1.4175 11.9525 2.0475C12.5825 2.6775 13.0813 3.41833 13.4488 4.27C13.8162 5.12167 14 6.03167 14 7C14 7.96833 13.8162 8.87833 13.4488 9.73C13.0813 10.5817 12.5825 11.3225 11.9525 11.9525C11.3225 12.5825 10.5817 13.0813 9.73 13.4488C8.87833 13.8162 7.96833 14 7 14ZM7 12.6C8.55167 12.6 9.87292 12.0546 10.9637 10.9637C12.0546 9.87292 12.6 8.55167 12.6 7C12.6 5.44833 12.0546 4.12708 10.9637 3.03625C9.87292 1.94542 8.55167 1.4 7 1.4C5.44833 1.4 4.12708 1.94542 3.03625 3.03625C1.94542 4.12708 1.4 5.44833 1.4 7C1.4 8.55167 1.94542 9.87292 3.03625 10.9637C4.12708 12.0546 5.44833 12.6 7 12.6Z" fill="black"/>
</g>
</svg>
