<svg width="25" height="25" viewBox="0 0 25 25" fill="none" xmlns="http://www.w3.org/2000/svg">
<g id="Frame">
<path id="Vector" d="M14.5834 10.3123V8.5415C15.1563 8.29845 15.7422 8.11616 16.3412 7.99463C16.9401 7.8731 17.5695 7.81234 18.2292 7.81234C18.6806 7.81234 19.1233 7.84706 19.5573 7.9165C19.9913 7.98595 20.4167 8.07275 20.8334 8.17692V9.84359C20.4167 9.68734 19.9957 9.57015 19.5703 9.49202C19.145 9.4139 18.6979 9.37484 18.2292 9.37484C17.5695 9.37484 16.9358 9.4573 16.3281 9.62223C15.7205 9.78716 15.1389 10.0172 14.5834 10.3123ZM14.5834 16.0415V14.2707C15.1563 14.0276 15.7422 13.8453 16.3412 13.7238C16.9401 13.6023 17.5695 13.5415 18.2292 13.5415C18.6806 13.5415 19.1233 13.5762 19.5573 13.6457C19.9913 13.7151 20.4167 13.8019 20.8334 13.9061V15.5728C20.4167 15.4165 19.9957 15.2993 19.5703 15.2212C19.145 15.1431 18.6979 15.104 18.2292 15.104C17.5695 15.104 16.9358 15.1821 16.3281 15.3384C15.7205 15.4946 15.1389 15.729 14.5834 16.0415ZM14.5834 13.1769V11.4061C15.1563 11.163 15.7422 10.9807 16.3412 10.8592C16.9401 10.7377 17.5695 10.6769 18.2292 10.6769C18.6806 10.6769 19.1233 10.7116 19.5573 10.7811C19.9913 10.8505 20.4167 10.9373 20.8334 11.0415V12.7082C20.4167 12.5519 19.9957 12.4347 19.5703 12.3566C19.145 12.2785 18.6979 12.2394 18.2292 12.2394C17.5695 12.2394 16.9358 12.3219 16.3281 12.4868C15.7205 12.6517 15.1389 12.8818 14.5834 13.1769ZM6.77085 16.6665C7.58683 16.6665 8.3811 16.7576 9.15367 16.9399C9.92624 17.1222 10.6945 17.3957 11.4584 17.7603V7.49984C10.7465 7.08317 9.99134 6.77067 9.19273 6.56234C8.39412 6.354 7.58683 6.24984 6.77085 6.24984C6.14585 6.24984 5.52519 6.3106 4.90887 6.43213C4.29256 6.55366 3.69794 6.73595 3.12502 6.979V17.2915C3.73266 17.0832 4.33596 16.9269 4.93492 16.8228C5.53387 16.7186 6.14585 16.6665 6.77085 16.6665ZM13.5417 17.7603C14.3056 17.3957 15.0738 17.1222 15.8464 16.9399C16.6189 16.7576 17.4132 16.6665 18.2292 16.6665C18.8542 16.6665 19.4662 16.7186 20.0651 16.8228C20.6641 16.9269 21.2674 17.0832 21.875 17.2915V6.979C21.3021 6.73595 20.7075 6.55366 20.0912 6.43213C19.4748 6.3106 18.8542 6.24984 18.2292 6.24984C17.4132 6.24984 16.6059 6.354 15.8073 6.56234C15.0087 6.77067 14.2535 7.08317 13.5417 7.49984V17.7603ZM12.5 20.8332C11.6667 20.1734 10.7639 19.6613 9.79169 19.2967C8.81946 18.9321 7.81252 18.7498 6.77085 18.7498C6.04169 18.7498 5.32554 18.8453 4.62242 19.0363C3.91929 19.2273 3.24655 19.4964 2.60419 19.8436C2.2396 20.0346 1.88804 20.0259 1.5495 19.8175C1.21096 19.6092 1.04169 19.3054 1.04169 18.9061V6.354C1.04169 6.16303 1.08943 5.98074 1.18492 5.80713C1.2804 5.63352 1.42363 5.50331 1.6146 5.4165C2.41321 4.99984 3.24655 4.68734 4.1146 4.479C4.98266 4.27067 5.86808 4.1665 6.77085 4.1665C7.7778 4.1665 8.76304 4.29671 9.72658 4.55713C10.6901 4.81755 11.6146 5.20817 12.5 5.729C13.3854 5.20817 14.3099 4.81755 15.2735 4.55713C16.237 4.29671 17.2222 4.1665 18.2292 4.1665C19.132 4.1665 20.0174 4.27067 20.8854 4.479C21.7535 4.68734 22.5868 4.99984 23.3854 5.4165C23.5764 5.50331 23.7196 5.63352 23.8151 5.80713C23.9106 5.98074 23.9584 6.16303 23.9584 6.354V18.9061C23.9584 19.3054 23.7891 19.6092 23.4505 19.8175C23.112 20.0259 22.7604 20.0346 22.3959 19.8436C21.7535 19.4964 21.0807 19.2273 20.3776 19.0363C19.6745 18.8453 18.9584 18.7498 18.2292 18.7498C17.1875 18.7498 16.1806 18.9321 15.2084 19.2967C14.2361 19.6613 13.3334 20.1734 12.5 20.8332Z" fill="#5F6368"/>
</g>
</svg>
