<svg width="22" height="20" viewBox="0 0 22 20" fill="none" xmlns="http://www.w3.org/2000/svg">
<g id="Like">
<path id="Vector" d="M10.9332 19.4245L11 19.4843L11.0668 19.4245L12.5168 18.1245L12.5169 18.1243C14.201 16.6069 15.5941 15.2974 16.6957 14.1957C17.7978 13.0936 18.6764 12.1023 19.3303 11.2221C19.984 10.3421 20.4441 9.52896 20.7068 8.78323C20.9689 8.03937 21.1 7.27815 21.1 6.5C21.1 4.90843 20.5656 3.57416 19.4957 2.50429C18.4258 1.43442 17.0916 0.9 15.5 0.9C14.6187 0.9 13.7792 1.08654 12.9826 1.45943C12.221 1.81594 11.5599 2.3121 11 2.94722C10.4401 2.3121 9.77903 1.81594 9.01739 1.45943C8.22076 1.08654 7.38129 0.9 6.5 0.9C4.90843 0.9 3.57416 1.43442 2.50429 2.50429C1.43442 3.57416 0.9 4.90843 0.9 6.5C0.9 7.27815 1.03114 8.03937 1.29318 8.78323C1.55588 9.52896 2.01595 10.3421 2.66973 11.2221C3.32358 12.1023 4.20216 13.0936 5.30429 14.1957C6.40593 15.2974 7.79896 16.6069 9.48306 18.1243L9.48325 18.1245L10.9332 19.4245ZM11.95 5.45H12.0199L12.0439 5.38436C12.2858 4.72307 12.7295 4.17697 13.3802 3.74587C14.0309 3.31481 14.7367 3.1 15.5 3.1C16.4753 3.1 17.2826 3.42402 17.9293 4.07071C18.576 4.7174 18.9 5.52474 18.9 6.5C18.9 7.06968 18.7861 7.64477 18.557 8.22581C18.3286 8.80492 17.9183 9.47125 17.3216 10.2255C16.725 10.9795 15.9113 11.8681 14.8796 12.8915C13.8622 13.9006 12.5692 15.1086 11 16.5157C9.43084 15.1086 8.13775 13.9006 7.12042 12.8915C6.08867 11.8681 5.27503 10.9795 4.67842 10.2255C4.08169 9.47125 3.67141 8.80492 3.44303 8.22581C3.21388 7.64477 3.1 7.06968 3.1 6.5C3.1 5.52474 3.42402 4.7174 4.07071 4.07071C4.7174 3.42402 5.52474 3.1 6.5 3.1C7.26326 3.1 7.96912 3.31481 8.61977 3.74587C9.2705 4.17697 9.71415 4.72307 9.95609 5.38436L9.9801 5.45H10.05H11.95Z" fill="#FAFAFA" stroke="#FAFAFA" stroke-width="0.2"/>
</g>
</svg>
