<svg width="25" height="25" viewBox="0 0 25 25" fill="none" xmlns="http://www.w3.org/2000/svg">
<g id="User">
<path id="User_2" fill-rule="evenodd" clip-rule="evenodd" d="M9.33332 7.29167C9.33332 5.54276 10.7511 4.125 12.5 4.125C14.2489 4.125 15.6667 5.54276 15.6667 7.29167C15.6667 9.04057 14.2489 10.4583 12.5 10.4583C10.7511 10.4583 9.33332 9.04057 9.33332 7.29167ZM12.5 2.125C9.64652 2.125 7.33332 4.4382 7.33332 7.29167C7.33332 10.1451 9.64652 12.4583 12.5 12.4583C15.3535 12.4583 17.6667 10.1451 17.6667 7.29167C17.6667 4.4382 15.3535 2.125 12.5 2.125ZM8.33332 14.625C6.96304 14.625 5.64888 15.1693 4.67994 16.1383C3.711 17.1072 3.16666 18.4214 3.16666 19.7917V21.875C3.16666 22.4273 3.61437 22.875 4.16666 22.875C4.71894 22.875 5.16666 22.4273 5.16666 21.875V19.7917C5.16666 18.9518 5.50029 18.1464 6.09415 17.5525C6.68802 16.9586 7.49347 16.625 8.33332 16.625H16.6667C17.5065 16.625 18.312 16.9586 18.9058 17.5525C19.4997 18.1464 19.8333 18.9518 19.8333 19.7917V21.875C19.8333 22.4273 20.281 22.875 20.8333 22.875C21.3856 22.875 21.8333 22.4273 21.8333 21.875V19.7917C21.8333 18.4214 21.289 17.1072 20.32 16.1383C19.3511 15.1693 18.0369 14.625 16.6667 14.625H8.33332Z" fill="#5F6368"/>
</g>
</svg>
