<svg width="25" height="25" viewBox="0 0 25 25" fill="none" xmlns="http://www.w3.org/2000/svg">
<g id="Frame">
<path id="Vector" d="M11.4583 17.7083H13.5417V13.5417H17.7083V11.4583H13.5417V7.29167H11.4583V11.4583H7.29167V13.5417H11.4583V17.7083ZM5.20833 21.875C4.63542 21.875 4.14497 21.671 3.73698 21.263C3.32899 20.855 3.125 20.3646 3.125 19.7917V5.20833C3.125 4.63542 3.32899 4.14497 3.73698 3.73698C4.14497 3.32899 4.63542 3.125 5.20833 3.125H19.7917C20.3646 3.125 20.855 3.32899 21.263 3.73698C21.671 4.14497 21.875 4.63542 21.875 5.20833V19.7917C21.875 20.3646 21.671 20.855 21.263 21.263C20.855 21.671 20.3646 21.875 19.7917 21.875H5.20833ZM5.20833 19.7917H19.7917V5.20833H5.20833V19.7917Z" fill="#5F6368"/>
</g>
</svg>
