<svg width="72" height="72" viewBox="0 0 72 72" fill="none" xmlns="http://www.w3.org/2000/svg">
<rect opacity="0.8" x="1" y="1" width="70" height="70" stroke="#2A2A2A" stroke-opacity="0.5" stroke-width="2"/>
<path d="M30.0477 47.5039C29.3529 47.5039 28.7582 47.2566 28.2634 46.7618C27.7687 46.2671 27.5213 45.6724 27.5213 44.9776V28.5566H26.2582V26.0302H32.574V24.7671H40.1529V26.0302H46.4687V28.5566H45.2055V44.9776C45.2055 45.6724 44.9582 46.2671 44.4634 46.7618C43.9687 47.2566 43.374 47.5039 42.6792 47.5039H30.0477ZM42.6792 28.5566H30.0477V44.9776H42.6792V28.5566ZM32.574 42.4513H35.1003V31.0829H32.574V42.4513ZM37.6266 42.4513H40.1529V31.0829H37.6266V42.4513Z" fill="#DC6320"/>
</svg>
