<svg width="10" height="12" viewBox="0 0 10 12" fill="none" xmlns="http://www.w3.org/2000/svg">
<g id="Transit">
<path id="Vector" d="M1.25 11.8334V11.2194L2.1875 10.6053C1.57292 10.6053 1.05469 10.3981 0.632812 9.98363C0.210938 9.56916 0 9.06002 0 8.45622V2.62289C0 1.77347 0.401042 1.15176 1.20312 0.757757C2.00521 0.363751 3.27083 0.166748 5 0.166748C6.79167 0.166748 8.07292 0.356076 8.84375 0.73473C9.61458 1.11339 10 1.74277 10 2.62289V8.45622C10 9.06002 9.78906 9.56916 9.36719 9.98363C8.94531 10.3981 8.42708 10.6053 7.8125 10.6053L8.75 11.2194V11.8334H1.25ZM1.25 5.07903H4.375V3.23692H1.25V5.07903ZM7.8125 6.3071H1.25H8.75H7.8125ZM5.625 5.07903H8.75V3.23692H5.625V5.07903ZM2.8125 8.76324C3.07292 8.76324 3.29427 8.67369 3.47656 8.4946C3.65885 8.31551 3.75 8.09803 3.75 7.84219C3.75 7.58634 3.65885 7.36887 3.47656 7.18977C3.29427 7.01068 3.07292 6.92113 2.8125 6.92113C2.55208 6.92113 2.33073 7.01068 2.14844 7.18977C1.96615 7.36887 1.875 7.58634 1.875 7.84219C1.875 8.09803 1.96615 8.31551 2.14844 8.4946C2.33073 8.67369 2.55208 8.76324 2.8125 8.76324ZM7.1875 8.76324C7.44792 8.76324 7.66927 8.67369 7.85156 8.4946C8.03385 8.31551 8.125 8.09803 8.125 7.84219C8.125 7.58634 8.03385 7.36887 7.85156 7.18977C7.66927 7.01068 7.44792 6.92113 7.1875 6.92113C6.92708 6.92113 6.70573 7.01068 6.52344 7.18977C6.34115 7.36887 6.25 7.58634 6.25 7.84219C6.25 8.09803 6.34115 8.31551 6.52344 8.4946C6.70573 8.67369 6.92708 8.76324 7.1875 8.76324ZM2.1875 9.37727H7.8125C8.08333 9.37727 8.30729 9.29029 8.48438 9.11631C8.66146 8.94233 8.75 8.7223 8.75 8.45622V6.3071H1.25V8.45622C1.25 8.7223 1.33854 8.94233 1.51562 9.11631C1.69271 9.29029 1.91667 9.37727 2.1875 9.37727ZM5 1.39482C4.10417 1.39482 3.36198 1.44599 2.77344 1.54833C2.1849 1.65067 1.77083 1.80418 1.53125 2.00885H8.53125C8.34375 1.80418 7.95573 1.65067 7.36719 1.54833C6.77865 1.44599 5.98958 1.39482 5 1.39482ZM5 2.00885H8.53125H1.53125H5Z" fill="black"/>
</g>
</svg>
